<svg width="1230.8" height="183.1" viewBox="0 0 325.6 48.4" xmlns="http://www.w3.org/2000/svg">
  <defs>
    <clipPath clipPathUnits="userSpaceOnUse" id="a">
      <path d="M0 0h3344v2382H0Z"/>
    </clipPath>
  </defs>
  <g clip-path="url(#a)" transform="matrix(.265 0 0 .265 -203 -149)">
    <path d="M1974 575 768 613v28l15 3h-1l28 5-42 18v44h46l-46 19v15l1230-39v-11l-1-11-60-18 29-6 28-5-3-31-1-17-73-9 65-13 5-1-1-9zm0 0L768 613v27l15 3-1 1 28 5-42 18v44h7-1 40l-46 18v15l1230-38-1-11v-11l-60-18 29-6 28-5-3-31-1-17-73-9 65-13 5-1-1-9z" style="fill:#a2672a;stroke-width:1.29524"/>
    <path d="M768 600v27l40 7-40 18v44h44l-40 16-4 2v16l1229-39-2-22-29-9-30-9 57-11-2-16-3-32h-4l-68-9 37-7h-2l35-7v-8zm0 0v27l40 7-40 18v44h44l-40 16-4 2v16l1229-39-2-22-29-9-30-9 57-11-2-16-3-32h-4l-68-9 37-7h-2l35-7v-8z" style="fill:#deba6d;stroke-width:1.29524"/>
    <path d="M1974 571a103620 61765 0 0 0-647 19l-381 12a2736 1631 0 0 1-178 1v6h149c65-1 130-5 194-7l204-6c209-7 419-12 628-18l10-2h-2zm-417 4-365 11c100-1 200-3 299-8zm367 9c-210 4-420 9-630 16-142 4-283 11-425 17l-101 4v5l90-3c143-6 284-13 428-18 225-7 452-11 678-16zm49 6a50137 29885 0 0 0-255 11c-143 6-284 14-427 19l-487 13 4 1-12 5c163-4 325-8 487-14 142-4 282-12 424-18l282-12-1-3h-4zm-207 24-106 1-195 7-204 7c-158 6-317 10-476 15l-15 7 480-16c127-4 254-10 381-13 120-4 244-2 360 3v-6a3422 2040 0 0 0-225-5zm149 20c-161 0-322 1-484 4-115 2-231 4-345 10l-318 14v5l311-13c112-6 225-9 339-11a17781 10599 0 0 1 575-3l-1-6zm-554 17c-48 0-96 2-144 4-150 5-300 13-449 21v5a34322 34322 0 0 1 566-24c68-2 136 1 202 3l306 10c50 2 102 3 154 3l-1-4-5-2-90-1-310-10c-74-2-151-6-229-5zm17 13-51 1c-132 3-265 9-397 14l-162 7v5a20529 12237 0 0 1 495-19 5184 3090 0 0 1 100-2h9l-33 3c-112 12-229 21-345 30l-226 17v5a57905 57905 0 0 0 556-44c26-3 53-5 76-9 7 0 16-2 15-4-1-3-18-4-37-4zm275 11a1158 690 0 0 0-121 2l-190 14a24512 14611 0 0 1-427 33l-42 2 150-4 10-1 438-34a1161 692 0 0 1 176-7c52 1 104 3 157 3 63 1 128 3 193 2l-1-6-145-1c-65 0-131-3-198-4zm-776 17a1780 1061 0 0 0-109 4h44l-10 4 43-1 30-1h2l-90 8-15 6-3 2 29-3c20-2 124-9 124-16 0-2-18-3-45-3zm1025 2-310 3c-79 0-164 8-240 13l-45 3 164-5 14-1c34-2 69-5 103-5h68z" style="fill:#cb9e37;stroke-width:1.29524"/>
  </g>
</svg>
