<svg height="533.2" width="578.2" xmlns="http://www.w3.org/2000/svg">
  <clipPath id="a">
    <path d="M375 434c-8-7-15-17-17-29a40 40 0 0 1 10-34 47 47 0 0 1 22-13l1-1h3l5-1a44 44 0 0 1 26 4l8 5a47 47 0 0 1 15 31c0 6-1 12-3 17-2 6-6 11-10 14-5 4-10 6-15 6h-16l15-4c4-2 8-5 10-8 6-6 7-15 6-23-2-8-6-16-12-21l-10-4a31 31 0 0 0-15 0h-1l-1 1h-1l-5 2-10 7c-5 5-8 13-8 21a41 41 0 0 0 14 29l5 4 13 7c-10 0-21-3-29-10M78 378l-11-10a40 40 0 0 1-7-21 46 46 0 0 1 4-22 39 39 0 0 1 38-25 35 35 0 0 1 36 28 39 39 0 0 1-1 23l-4 7a28 28 0 0 1-26 12l-13-4h13c4-1 8-2 11-5 6-4 9-12 9-19l-1-11-6-9c-4-5-11-7-18-7a28 28 0 0 0-19 7 33 33 0 0 0-9 13l-2 6c-2 8-1 16 2 23 1 4 4 7 7 10l10 8-13-4m323-41c-8-1-15-3-21-6l-16-12a154 154 0 0 1-25-28l-11-15-5-8a170 170 0 0 0-62-52l17 7a153 153 0 0 1 52 40l6 7a418 418 0 0 0 37 38c4 4 9 7 14 9a41 41 0 0 0 23 4v-1h2a26 26 0 0 0 4-1c5-2 9-5 13-9l10-12 7-15a171 171 0 0 0 14-71v-4a123 123 0 0 0-4-25 66 66 0 0 0-38-41l-4-2c-9-4-20-6-31-6a254 254 0 0 0-116 28l-2 1-2 1-4 2a265 265 0 0 0-60 51l-24 28a220 220 0 0 1-30 26l-19 10c-6 2-14 4-21 4-8 1-15 0-23-2-7-2-13-6-19-9a135 135 0 0 1-40-45l-1-2-1-3a86 86 0 0 1-6-14 160 160 0 0 1-9-58c0-6 1-13 4-20a55 55 0 0 1 12-20l1-1 1-1a33 33 0 0 1 15-8l21-1 19 4 35 13 33 16 33 17-17-6-18-7a876 876 0 0 0-69-22l-17-2c-6 0-11 0-16 2a24 24 0 0 0-9 5h-1v1l-1 1c-3 4-6 9-7 14-3 10-3 22-1 33a149 149 0 0 0 15 44l1 2 1 2 10 14c7 9 15 16 24 22l14 6 14 1c9-1 19-5 28-11a113 113 0 0 0 24-23l24-28a312 312 0 0 1 65-57l4-2 3-1 2-2a200 200 0 0 1 54-21 277 277 0 0 1 77-9 148 148 0 0 1 40 8 86 86 0 0 1 19 11 95 95 0 0 1 28 31 96 96 0 0 1 12 39l1 10v10a184 184 0 0 1-29 93l-14 15a55 55 0 0 1-24 13h-6a53 53 0 0 1-10 0"/>
  </clipPath>
  <linearGradient id="b" gradientTransform="matrix(0 343.414 343.414 0 245 101)" gradientUnits="userSpaceOnUse" spreadMethod="pad" x1="0" x2="1" y1="0" y2="0">
    <stop offset="0" stop-color="#f29000"/>
    <stop offset="1" stop-color="#f8ae4d"/>
  </linearGradient>
  <g clip-path="url(#a)" transform="matrix(1.204 0 0 -1.204 -5 535)">
    <path d="M375 434c-8-7-15-17-17-29a40 40 0 0 1 10-34 47 47 0 0 1 22-13l1-1h3l5-1a44 44 0 0 1 26 4l8 5a47 47 0 0 1 15 31c0 6-1 12-3 17-2 6-6 11-10 14-5 4-10 6-15 6h-16l15-4c4-2 8-5 10-8 6-6 7-15 6-23-2-8-6-16-12-21l-10-4a31 31 0 0 0-15 0h-1l-1 1h-1l-5 2-10 7c-5 5-8 13-8 21a41 41 0 0 0 14 29l5 4 13 7c-10 0-21-3-29-10M78 378l-11-10a40 40 0 0 1-7-21 46 46 0 0 1 4-22 39 39 0 0 1 38-25 35 35 0 0 1 36 28 39 39 0 0 1-1 23l-4 7a28 28 0 0 1-26 12l-13-4h13c4-1 8-2 11-5 6-4 9-12 9-19l-1-11-6-9c-4-5-11-7-18-7a28 28 0 0 0-19 7 33 33 0 0 0-9 13l-2 6c-2 8-1 16 2 23 1 4 4 7 7 10l10 8-13-4m323-41c-8-1-15-3-21-6l-16-12a154 154 0 0 1-25-28l-11-15-5-8a170 170 0 0 0-62-52l17 7a153 153 0 0 1 52 40l6 7a418 418 0 0 0 37 38c4 4 9 7 14 9a41 41 0 0 0 23 4v-1h2a26 26 0 0 0 4-1c5-2 9-5 13-9l10-12 7-15a171 171 0 0 0 14-71v-4a123 123 0 0 0-4-25 66 66 0 0 0-38-41l-4-2c-9-4-20-6-31-6a254 254 0 0 0-116 28l-2 1-2 1-4 2a265 265 0 0 0-60 51l-24 28a220 220 0 0 1-30 26l-19 10c-6 2-14 4-21 4-8 1-15 0-23-2-7-2-13-6-19-9a135 135 0 0 1-40-45l-1-2-1-3a86 86 0 0 1-6-14 160 160 0 0 1-9-58c0-6 1-13 4-20a55 55 0 0 1 12-20l1-1 1-1a33 33 0 0 1 15-8l21-1 19 4 35 13 33 16 33 17-17-6-18-7a876 876 0 0 0-69-22l-17-2c-6 0-11 0-16 2a24 24 0 0 0-9 5h-1v1l-1 1c-3 4-6 9-7 14-3 10-3 22-1 33a149 149 0 0 0 15 44l1 2 1 2 10 14c7 9 15 16 24 22l14 6 14 1c9-1 19-5 28-11a113 113 0 0 0 24-23l24-28a312 312 0 0 1 65-57l4-2 3-1 2-2a200 200 0 0 1 54-21 277 277 0 0 1 77-9 148 148 0 0 1 40 8 86 86 0 0 1 19 11 95 95 0 0 1 28 31 96 96 0 0 1 12 39l1 10v10a184 184 0 0 1-29 93l-14 15a55 55 0 0 1-24 13h-6a53 53 0 0 1-10 0" fill="url(#b)" style="fill:url(#b)"/>
  </g>
  <path d="M0 459v-1h20v5h-1l-1-2c0-1-1-2-3-2H7v15h7l3-1 1-2h1v7h-1l-1-2-3-1H7v12l1 2 2 1h1H0h1l2-1 1-2v-25l-1-3H1Zm55-8 2 1v3h-3a2 2 0 0 1 0-3l1-1m-8 0 1 1 1 1-1 2h-3a2 2 0 0 1 0-3l2-1m17 23-2-10c-2-2-3-4-5-4l-6-2-4 1-5 2-3 5-1 8 1 8 3 5 4 2a14 14 0 0 0 10 1 12 12 0 0 0 7-8l1-8m4 0-2 9a17 17 0 0 1-30 0 17 17 0 0 1-1-15l4-6a17 17 0 0 1 12-5 17 17 0 0 1 17 17m20 0h2l5-1 3-2v-8l-3-3-5-1h-2Zm-6-15v-1h11l4 1a8 8 0 0 1 5 5v3l-1 3-2 3-4 1 6 6 3 5 3 4 2 1h-6l-1-1a61 61 0 0 1-1-2l-4-7-2-3-3-1-2-1h-2v12c0 2 2 3 4 3H82h1l2-1v-27l-1-2-2-1m46 1v28l2 1h10l4-3c2-1 2-3 3-5l1-6-1-5-2-5-5-4-7-2-5 1m-7-1v-1h12a24 24 0 0 1 9 2 17 17 0 0 1 5 3 16 16 0 0 1 4 16 15 15 0 0 1-7 9l-3 2h-20l3-1v-29l-1-1h-2zm45 0v-1h19v5h-1c0-2-1-4-5-4h-7v15h6l3-1 2-2v7l-1-2-1-1h-9v11l1 3h10l2-1 1-3-1 5h-19l2-1 1-2v-25l-1-2-2-1Zm39 15h2l5-1 2-2 1-4-1-4-2-3-5-1h-2Zm-6-15h-1v-1h11l5 1a8 8 0 0 1 4 5l1 3-1 3-2 3-4 1c2 1 4 3 5 6l3 5 3 4 3 1h-6a41 41 0 0 1-3-3l-4-7-2-3-2-1-2-1h-2v12c0 2 1 3 3 3h-10 2l1-1 1-2v-25l-1-2-2-1m63-1v1l-2 1-1 1a32 32 0 0 0-1 4l-10 26-11-29-2-2-2-1v-1h10v1h-2l-1 2a8 8 0 0 0 1 2l8 23 8-21v-6h-3v-1Zm12 1v-1h20v5h-1c0-2-2-4-5-4h-7v15h6l3-1 2-2v7l-1-2-1-1h-9v11l1 3h10l1-1 1-3h1l-1 5h-20 1l2-1 1-2v-25l-1-2-2-1Zm40 15h2l4-1c2 0 2-1 3-2l1-4-1-4-2-3-5-1h-2Zm-7-15v-1h11l5 1a8 8 0 0 1 4 5v6l-2 3-4 1 5 6 3 5 3 4 2 1h-5a41 41 0 0 1-3-3l-4-7-2-3-2-1-2-1h-2v12c0 2 1 3 3 3h-10 2l1-1v-27l-1-2-2-1m39 0v-1h19v5c0-2-2-4-5-4h-7v15h6l3-1 2-2v7l-1-2-1-1h-9v14h10l2-1 1-3-1 5h-19 1l2-1 1-2v-25l-1-2-2-1Zm43-1v1h-2l-1 3v25l1 2 2 1h-10l2-1 1-2v-25l-1-3h-2v-1Zm47 0v1h-2l-2 1v31l-25-27v23l1 2 3 1h-8 2l1-2v-25l-1-2-2-2h-2v-1h6l24 28v-25l-1-2h-3v-1Zm44 2v25l1 3 1 1h10l5-3 2-5 1-6v-5l-3-5-5-4-7-2-5 1m-7-1v-1h13a24 24 0 0 1 8 2 17 17 0 0 1 5 3 16 16 0 0 1 5 16 15 15 0 0 1-7 9l-4 2h-20 1l2-1 1-2v-25l-1-2-1-1h-1zm45 0v-1h19v5c0-2-2-4-6-4h-6v15h6l3-1 1-2h1v7h-1v-2l-2-1h-8v14h10l2-1 1-3-1 5h-19l2-1 1-2v-27l-3-1Zm39 15h2l5-1 2-2 1-4v-4l-3-3-5-1h-2Zm-6-15v-1h11l4 1a8 8 0 0 1 5 5v3l-1 3-2 3-4 1 6 6 2 5 4 4 2 1h-6a41 41 0 0 1-2-3l-4-7-3-3-2-1-2-1h-2v12c0 2 1 3 4 3h-10 1l1-1 1-2v-25l-1-2-2-1M17 506l-2-4-5-2-3 1-2 3-1 3v3l2 2 2 1 3 2 6 4 2 6a8 8 0 0 1-5 7l-5 1a13 13 0 0 1-7-2H1v2H0v-8h1c0 2 1 4 3 5l5 2 4-1 2-2 1-3-2-4-5-4a73 73 0 0 1-6-4 8 8 0 0 1-2-6l1-4 3-3 5-2 5 1h1l1-1Zm36 0-2-4-4-1h-7v27c0 3 2 4 4 4H34l2-1 1-3v-27h-6l-4 1-2 4v-8l1 1v1h23l4-2Zm38 26h-7v-5l-4 4a12 12 0 0 1-16-4l-1-3v-20l-1-2c0-1-1-2-3-2h10l-2 2-1 2v16l1 7a8 8 0 0 0 8 5 11 11 0 0 0 5-2c3-2 4-4 4-8v-20l-3-2h10l-3 2v28l1 1 2 1Zm14-30v25l1 3 2 1h3l6-1c2 0 3-1 5-3l2-4 1-6v-6l-3-5-5-4-7-1-5 1m-7-2h13a24 24 0 0 1 8 2 17 17 0 0 1 6 3 16 16 0 0 1 4 12 16 16 0 0 1-2 8 15 15 0 0 1-9 7H98h1l2-1 1-3v-24l-1-2-1-1-1-1zm49 0-2 1-1 3v24l1 3 2 1h-10l3-1 1-3v-24l-1-3-3-1Zm8 0h19v5h-1c0-3-1-4-5-4h-7v15h6l3-1c1 0 2-1 2-3v8l-1-2-1-1h-9v11l1 2 2 1h8l2-2 1-2-1 5h-19l2-1 1-3v-24l-1-3-2-1Zm33 16h2l5-1 2-3 1-3-1-4-2-3-5-1h-2Zm-6-16h-1 12l4 1a8 8 0 0 1 4 5l1 2-1 4-2 3-4 1c2 1 4 3 5 6l3 5 4 4 2 1h-6a41 41 0 0 1-3-3l-3-7-3-3-2-2h-2l-2-1v12c0 3 1 4 4 4h-11l2-1 1-1 1-2v-24l-1-3-2-1m33 0h19v5c0-3-2-4-6-4h-7v15h6l3-1c1 0 2-1 2-3v8l-1-2-1-1h-9v11l1 2 2 1h8l2-2 1-2-1 5h-19l2-1 1-3v-27l-3-1Zm60 0-2 1-1 1-1 3v28l-24-28v26l3 1h-8l2-1 1-2 1-4v-21l-2-1-2-2-2-1h6l24 27v-24l-1-2-2-1Zm14 2v28l2 1h4l6-1 4-3 3-4 1-6-1-6-2-5-5-4-7-1-5 1m-7-2h12a24 24 0 0 1 9 2 17 17 0 0 1 5 3 16 16 0 0 1 4 16 15 15 0 0 1-7 9l-3 2h-20l3-1v-29l-1-1-2-1zm39 0h19v5c0-3-2-4-6-4h-6v15h5l4-1 1-3v8l-1-2-1-1h-8v13l2 1h8l2-2 1-2-1 5h-19l2-1 1-3v-27l-3-1Zm60 0-2 1-1 1-1 3v28l-24-28v26l3 1h-8l2-1 1-2 1-4v-21l-1-1-3-2-2-1h6l24 27v-24l-1-2-2-1Zm23 6-2-4-4-2-4 1-2 3-1 3 1 3 1 2 2 1 4 2 5 4 2 6a8 8 0 0 1-4 7l-6 1a13 13 0 0 1-6-2h-2v2-8l3 5 6 2 3-1 3-2v-3c0-2 0-3-2-4-1-1-2-3-5-4a73 73 0 0 1-5-4 8 8 0 0 1-2-10c1-1 2-3 4-3l5-2 4 1h1l1-1Zm38 1-3-4-4-2-4-1a12 12 0 0 0-10 5l-2 5a21 21 0 0 0 0 12l2 5a12 12 0 0 0 10 5l5-1 6-4v2l-6 3-6 1-7-1a16 16 0 0 1-8-9 17 17 0 0 1 1-15 17 17 0 0 1 15-9l6 1 2 1h1l1-1h1zm32 8v-11l-1-3-2-1h10l-3 1-1 3v24c0 3 2 4 4 4h-10l2-1 1-3v-12h-18v12l1 3 2 1h-10l3-1v-27c0-2-1-4-3-4h10l-2 1-1 3v11Zm21 3h11l-6-15Zm8-18 9 27 2 3 1 1 2 1h-11l3-1v-1a7 7 0 0 0 0-2l-3-9h-11l-3 8v3l1 1 1 1h-7l3-1 1-4 9-27Zm20 0h19v5l-1-3-4-1h-8v15h8l2-1 1-3h1v8h-1l-1-3h-10v11l1 3 3 1h-10l2-1 1-3v-24l-1-3-2-1Zm54 6-2-4-4-1h-7v27c0 3 2 4 4 4h-10l2-1 1-3v-27h-6l-4 1-2 4v-8l1 1v1h23l4-2Z" stroke-width=".5" fill="#030303" stroke="#030303"/>
</svg>
