<svg xmlns="http://www.w3.org/2000/svg" viewBox="0 0 193.1 227.1" style="enable-background:new 0 0 193.1 227.1" xml:space="preserve">
  <path class="st0" fill="#fff" d="M125.9 116.7s-7 40.6 9.9 49.4a51.2 51.2 0 0 0 24.2 7.2l25.8.6-5.9-2.9 4.9-3.2-17 .3s-34.6 1.6-37-22.5l-.8-29.7-4.1.8zm-16.5-52.9H63.5v112.8h45.9V63.8zm-8.6 104h2.7v.8h-1.7v.7h1.6v.8h-1.6v1.1h1.7v.8h-2.7v-4.2zm-4.3 0h1v1.6h1.4v-1.6h1v4.3h-1v-1.9h-1.4v1.9h-1v-4.3zm-4.3 0h1v2.7l.2.7.5.2.5-.2.2-.7v-2.7h1v2.7c0 .5-.1.9-.4 1.2-.3.3-.7.4-1.2.4s-1-.1-1.2-.4c-.3-.3-.4-.7-.4-1.2v-2.7zm-3.8 0h2.2l.4.2c.1.1.3.2.3.4l.1.6-.2.8-.5.5 1.2 1.8h-1.2l-1-1.6h-.4v1.6h-1v-4.3zm-4 3h.1l.7.4.7.1h.2l.2-.1.2-.1.1-.2-.1-.2-.3-.2-.4-.1-.4-.1-.7-.5-.2-.7c0-.4.2-.7.5-1 .3-.3.7-.4 1.2-.4l.7.1.6.2v1h-.1c-.2-.1-.3-.3-.6-.3l-.7-.1h-.2l-.2.1-.2.1-.1.2.1.3.4.2.4.1.4.1.6.4.2.7c0 .4-.2.8-.5 1-.3.3-.7.4-1.3.4l-.8-.1-.6-.2v-1.1zm-3-3h1v3.4h1.7v.8h-2.7v-4.2zm-4 0h2.2l.4.2c.1.1.3.2.3.4l.1.6-.2.8-.5.5 1.2 1.8h-1.2l-1-1.6h-.4v1.6h-1v-4.3zm-4.4 4.3 1.4-4.3h1.1l1.4 4.3h-1l-.3-.9h-1.4l-.3.9H73zm-3.6-4.3h1v1.9l1.3-1.9h1.1l-1.5 2 1.5 2.3h-1.2l-1.1-1.7-.2.3v1.4h-1v-4.3zm38.4-4.4H65v-98h42.8v98zm-36-11.9h-2.2l2 6.9h2.2l1.3-4.6 1.3 4.6h2.2l2-6.9h-2.1l-1.1 4.7-1.3-4.7h-1.8l-1.4 4.7-1.1-4.7zm10.9.8c-.7.7-1 1.6-1 2.7s.3 2 1 2.6c.7.6 1.7.9 3 .9l1.4-.1 1.3-.4v-1.8h-.2l-1 .5c-.4.2-.8.3-1.3.3-.7 0-1.2-.1-1.6-.4-.4-.3-.6-.7-.6-1.2h4.8v-.8c0-1.1-.3-1.9-.8-2.4-.5-.6-1.3-.8-2.4-.8-1-.1-1.9.2-2.6.9m1.1 1.8c0-.5.2-.8.4-1.1.3-.2.6-.3 1-.3s.8.1 1 .3c.2.2.3.6.3 1h-2.7zm3.3-22.9c.6 0 1.1 0 1.6-.2l1.5-.5v-2h-.3l-1.1.6c-.5.2-.9.3-1.4.3a3 3 0 0 1-1.8-.5c-.4-.3-.6-.8-.7-1.4h5.4v-.9c0-1.2-.3-2.1-.9-2.7-.6-.6-1.5-.9-2.7-.9a4 4 0 0 0-3 1.1 4 4 0 0 0-1.1 3c0 1.3.4 2.3 1.2 3 .7.7 1.9 1.1 3.3 1.1m-2.2-5.1c0-.5.2-.9.5-1.2.3-.2.7-.4 1.1-.4.5 0 .8.1 1.1.4.2.3.4.6.4 1.2h-3.1zm7.6 25.4h-2.1v6.9h2.1v-4.6l.7-.2.8-.1h.5l.4.1h.2v-2.1h-.4l-.9.2-1.2.8v-1zM96.4 90a4 4 0 0 0-1.1 3c0 1.3.4 2.3 1.2 3 .8.7 1.9 1 3.4 1 .6 0 1.1 0 1.6-.2l1.5-.5v-2h-.3l-1.1.6c-.5.2-.9.3-1.4.3a3 3 0 0 1-1.8-.5c-.4-.3-.6-.8-.7-1.4h5.4v-.9c0-1.2-.3-2.1-.9-2.7-.6-.6-1.5-.9-2.7-.9-1.4.1-2.4.5-3.1 1.2m1.2 2c0-.5.2-.9.5-1.2.3-.2.7-.4 1.1-.4.5 0 .8.1 1.1.4.2.3.4.6.4 1.2h-3.1zm.2 14.2h-2.3v7.7h2.3v-5.4l.7-.3.6-.1.7.1.4.4.2.7v4.7h2.3v-5c0-1-.2-1.7-.7-2.2-.4-.5-1.1-.7-1.8-.7-.5 0-.9.1-1.3.3-.4.2-.8.4-1.2.8v-1zm0 17.1h-2.3v7.7h2.3v-5.4l.7-.3.6-.1.7.1.4.4.2.7v4.7h2.3v-5c0-1-.2-1.7-.7-2.2-.4-.5-1.1-.7-1.8-.7-.5 0-.9.1-1.3.3-.4.2-.8.4-1.2.8v-1zm1 25.6h-2.1v9.5h2.1v-2.3l.6-.7 1.8 3h2.4l-2.5-3.9 2.3-3H101l-2.2 3v-5.6zm1.6-69.1h2.3v-7.7h-2.3v5.4a1 1 0 0 1-.7.3c-.2.2-.4.2-.6.2l-.7-.1a.8.8 0 0 1-.4-.4l-.2-.6v-4.8h-2.3v5c0 1 .2 1.7.7 2.2.4.5 1.1.7 1.9.7.5 0 .9-.1 1.3-.3.4-.2.8-.4 1.2-.8v.9zM85 110.5h5.4v-.9c0-1.2-.3-2.1-.9-2.7-.6-.6-1.5-.9-2.7-.9a4 4 0 0 0-3 1.1 4 4 0 0 0-1.1 3c0 1.3.4 2.3 1.2 3s1.9 1 3.4 1a7.8 7.8 0 0 0 3.1-.7v-2h-.3l-1.1.6c-.5.2-.9.3-1.4.3-.8 0-1.4-.2-1.8-.5s-.8-.7-.8-1.3m-.1-1.4c0-.5.2-.9.5-1.2.3-.2.7-.4 1.1-.4.5 0 .8.1 1.1.4.2.3.4.6.4 1.2h-3.1zm2.7-19.9h-2.3v7.7h2.3v-7.7zm-2.4-1.1h2.5v-1.9h-2.5v1.9zm3.2-8.2.8-.2V78H89l-.4.2-.5.1-.7-.1c-.2-.1-.3-.2-.3-.4l-.1-.6v-3.4h2.2v-1.7H87v-2.2h-2.3v2.2h-1v1.7h1v3.6c0 .9.2 1.6.7 2 .4.4 1.1.6 2 .6l1-.1M75 131h2.3v-10.6H75v3.3l-.9-.4-1.1-.1-1.3.3-1.1.8c-.3.4-.6.8-.7 1.3-.2.5-.3 1.1-.3 1.7a5 5 0 0 0 .8 2.9c.5.7 1.2 1.1 2.1 1.1l1.2-.2 1.1-.8v.7zm0-2.2-.6.3-.7.1c-.5 0-.9-.2-1.2-.5-.2-.3-.4-.9-.4-1.6 0-.7.2-1.3.5-1.7.3-.4.8-.6 1.4-.6h.5l.5.2v3.8zm-2.5-14.9v-5.1l.8-.2.9-.1h.6l.5.1h.2v-2.3h-.6l-1.1.2-1.3.9v-1.1h-2.3v7.7h2.3zm2.5-17h2.3V86.2H75v3.3l-.9-.4-1-.1-1.3.3-1.1.8c-.3.4-.6.8-.7 1.3-.2.5-.3 1.1-.3 1.7a5 5 0 0 0 .8 2.9c.5.7 1.2 1.1 2.1 1.1l1.2-.2 1.1-.8v.8zm0-2.2-.6.3-.7.1c-.5 0-.9-.2-1.2-.5-.2-.3-.4-.9-.4-1.6 0-.7.2-1.3.5-1.7.3-.4.8-.6 1.4-.6h.5l.5.2v3.8zm-2.3-20.1-.2-.4c0-.2.1-.4.4-.5a3 3 0 0 1 1-.2l1.3.2 1.2.6h.2v-1.9l-1.2-.4-1.6-.2c-1.2 0-2.1.2-2.7.7-.7.5-1 1.1-1 1.8 0 .6.2 1.1.5 1.4.3.4.8.7 1.5.9l.8.2.7.1.7.2.2.4c0 .2-.1.4-.3.5l-1 .2-1-.1-.8-.3-.7-.3-.4-.3h-.2v2a9 9 0 0 0 3.1.6c1.2 0 2.1-.2 2.8-.7.7-.5 1-1.1 1-1.9 0-.5-.1-1-.4-1.4-.3-.4-.7-.6-1.4-.8l-.8-.2-.8-.1c-.5.1-.8 0-.9-.1m2.3 94.3-.5 1.5h.9l-.4-1.5zm4.2-.2-.2-.1h-.6v1.1h.7l.3-.1.1-.2v-.3l-.1-.3-.2-.1m11 0-.2-.1h-.6v1.1h.7l.3-.1.1-.2v-.3l-.1-.3-.2-.1"/>
  <path class="st0" fill="#fff" d="M144.4 135.5 112 175.2c0-3.5.6-78.7.4-111.5l32-23.1v94.9zm-43.1-82.6 13.6-47.4 1.2-.1c1.4 4.3 2.9 8.5 4.2 12.8.2.5-.1 1.3-.4 1.8l-18 33.2-.6-.3m3.5 3.8 23.1-42.6c1.4 4.3 2.6 7.6 3.6 11.1.2.7-.2 1.7-.7 2.3l-25.1 29c-.1.2-.4.2-.9.2m33.4-31.4c1.2 3.4 2.3 5.9 3.1 8.6.2.8-.1 2.3-.8 2.9a579 579 0 0 1-31.6 24.5l29.3-36M28.3 135l32.4 39.7c0-3.5-.6-78.7-.4-111.5l-32-23.1V135zm57.9-95c-9.1 0-13.9-3-13.9-8s4.8-8 13.9-8c9.1 0 13.9 3 13.9 8s-4.8 8-13.9 8zm0-11.3c-6.1 0-9.2.7-9.2 3.2s3.1 3.3 9.1 3.3c6.1 0 9.2-.7 9.2-3.2.1-2.5-3-3.3-9.1-3.3zm-8.1 20.5 2.7 5-4.3 1.5-4.1-7.5v-3.4h27.2v4.4H78.1zm8.1-28.3c-9.1 0-13.9-3-13.9-8s4.8-8 13.9-8c9.1 0 13.9 3 13.9 8 0 5.1-4.8 8-13.9 8zm0-11.2c-6.1 0-9.2.7-9.2 3.2s3.1 3.3 9.1 3.3c6.1 0 9.2-.7 9.2-3.2.1-2.5-3-3.3-9.1-3.3zM71.4 52.9 57.8 5.4l-1.2-.1c-1.4 4.3-2.9 8.5-4.2 12.8-.2.5.1 1.3.4 1.8l18 33.2.6-.2m-3.6 3.8L44.7 14.1c-1.4 4.3-2.6 7.6-3.6 11.1-.2.7.2 1.7.7 2.3l25.1 29c.1.2.5.2.9.2M34.5 25.3c-1.2 3.4-2.3 5.9-3.1 8.6-.2.8.1 2.3.8 2.9a579 579 0 0 0 31.6 24.5l-29.3-36"/>
  <path style="fill:none" d="M1.1 185.4h191.7v45H1.1z"/>
  <g class="st2">
    <path class="st0" fill="#fff" d="M21.5 186.9c.5.2.8.5.8.8s-.1.5-.4.7a5 5 0 0 0-2.8-.7c-.8 0-1.4.2-1.9.6-.5.4-.7.8-.7 1.3s.2 1 .5 1.3c.4.3 1.1.7 2.4 1.1.9.3 1.6.7 1.9 1.1a2.8 2.8 0 0 1-.5 3.7c-.7.6-1.7.9-2.9.9-2.5 0-3.8-.5-3.8-1.4 0-.3.2-.5.5-.6.7.7 1.8 1 3.4 1a3 3 0 0 0 1.8-.5c.4-.3.6-.7.6-1.2s-.2-.9-.5-1.2c-.3-.3-.9-.6-1.8-.9-1.2-.4-2-.8-2.4-1.2-.4-.4-.6-1.1-.6-1.9 0-.9.4-1.6 1.2-2.2.8-.6 1.8-.9 3-.9a5 5 0 0 1 2.2.2zm8.9 4.2c0 1.7-1.2 2.5-3.6 2.5l-2.1-.1v.5c0 1.8.7 2.7 2.2 2.7a6 6 0 0 0 2.7-.6c.2.1.3.3.3.5 0 .3-.3.6-.8.8s-1.3.3-2.3.3c-2.2 0-3.3-1.2-3.3-3.5 0-1.5.4-2.8 1.2-3.7s1.9-1.4 3.3-1.4c1.6.1 2.4.7 2.4 2zm-1.1.2c0-.8-.5-1.2-1.6-1.2-.6 0-1.2.2-1.8.6-.6.4-.9 1.1-1.1 2l1.9.1c1.7 0 2.6-.5 2.6-1.5zm5.9 5.7c0 .5-.6.7-1.7.7a2 2 0 0 1-.9-.2c-.2-.2-.3-.4-.3-.8l.1-1.3.7-5h-1.3l-.1-.3c0-.3.1-.4.4-.5l1.4-.2.8.2c.1.1.2.3.1.6l-.4 3.2-.4 2.8.1.4.5.1.8-.1c.2 0 .2.1.2.4zm.1-10.5c0 .3-.1.5-.3.6-.2.2-.4.2-.7.2-.5 0-.8-.2-.8-.7 0-.3.1-.5.3-.6.2-.2.4-.2.8-.2.5 0 .7.2.7.7zm6.9 3.3c0 .3-.1.4-.3.5l-.9.1h-2l-.5 4.4-.1.9.2.8.8.2a4 4 0 0 0 2.1-.7c.2.1.3.2.3.4 0 .3-.1.5-.3.6l-.9.4-1 .2-.8.1c-.7 0-1.1-.1-1.4-.4-.3-.3-.5-.7-.5-1.4l.1-.7.6-4.8h-1.1l-.1-.4c0-.2.1-.4.3-.5l1-.2.2-1.6c.1-.5.3-.8.7-.8l.7.2-.3 2.2h3c.2.2.2.4.2.5zm10.6 7.1c0 .3-.1.5-.4.6l-1.4.1h-3.9l-.1-.4.2-.4c.1-.1.3-.2.7-.2l1.6-.1.8-6.1-2.4 1.3c-.3-.1-.4-.3-.4-.5 0-.3.3-.6.9-.9l1.1-.6c.5-.3 1-.4 1.3-.4.6 0 .8.2.8.5l-.9 6.8h1.9c.2 0 .2.1.2.3zm9-3.9c0 2.3-.5 4-1.4 5.1a4.7 4.7 0 0 1-3.8 1.7c-.8 0-1.4-.1-1.9-.4s-.8-.5-.8-.9c0-.2.1-.4.3-.5.8.4 1.7.6 2.6.6 1 0 1.9-.3 2.5-.9.6-.6 1.1-1.8 1.3-3.6-.5 1.2-1.6 1.7-3 1.7-1 0-1.8-.3-2.3-.8-.5-.5-.7-1.2-.7-2.1 0-1.3.4-2.2 1.1-2.9.7-.6 1.7-1 2.9-1 1 0 1.8.3 2.4.9s.8 1.8.8 3.1zm-1.2.4c0-1.1-.2-2-.6-2.5-.4-.5-1-.8-1.8-.8s-1.4.2-1.8.7c-.5.5-.7 1.1-.7 1.9 0 1.5.8 2.2 2.3 2.2 1 0 1.8-.5 2.6-1.5zm9.5 3.6c0 .4-.3.6-.9.6h-6.3c-.2-.1-.2-.3-.2-.6a70.6 70.6 0 0 0 4.7-3.1c.8-.7 1.2-1.4 1.2-2.1 0-.5-.2-.9-.5-1.2-.3-.3-.8-.4-1.4-.4-1 0-1.9.3-2.6 1-.3 0-.5-.2-.5-.5 0-.2.1-.4.4-.6.6-.6 1.5-.9 2.8-.9.9 0 1.7.2 2.2.6.5.4.8 1 .8 1.7 0 .9-.3 1.7-1 2.3-.6.6-2 1.6-4.1 2.8H70l.1.4zm6.2 1.8a5 5 0 0 1-3.1.9c-.9 0-1.5-.1-2.1-.3-.5-.2-.8-.5-.8-.9 0-.2.1-.4.3-.5a6 6 0 0 0 2.7.6c1.9 0 2.8-.8 2.8-2.3 0-1.1-.9-1.6-2.8-1.6l-.2-.5c0-.3.1-.5.3-.5 1-.1 1.7-.3 2.1-.6s.6-.8.6-1.5c0-1-.6-1.5-1.7-1.5-.9 0-1.7.3-2.4.9-.3 0-.4-.2-.4-.5l.3-.6c.6-.6 1.5-.8 2.7-.8.9 0 1.6.2 2.1.7.5.4.7 1 .7 1.7 0 .8-.2 1.4-.7 1.9a3 3 0 0 1-1.8.8c.8 0 1.4.3 1.8.7.4.4.6.9.6 1.5.1 1-.2 1.8-1 2.4zm15.8-5.7-.1.5h-8.5l-.1-.5.1-.5H92l.1.5zm16-1.9c0 2.1-.6 3.7-1.9 4.8-1.2 1.1-3 1.6-5.2 1.6-1.9 0-2.8-.3-2.8-1v-.6l.4-3.2.7-5.1h-1.4l-.1-.4c0-.4.4-.6 1.1-.6h3.5c1.9 0 3.3.4 4.2 1.2s1.5 2 1.5 3.3zm-1.3.3c0-1.2-.4-2.2-1.2-2.8-.8-.6-1.9-1-3.3-1h-1.6l-1 8.3c0 .3 0 .4.2.5l1.4.1c1.8 0 3.1-.4 4.1-1.3.9-.8 1.4-2.1 1.4-3.8zm9.9-.4c0 1.7-1.2 2.5-3.6 2.5l-2.1-.1v.5c0 1.8.7 2.7 2.2 2.7a6 6 0 0 0 2.7-.6c.2.1.3.3.3.5 0 .3-.3.6-.8.8-.5.2-1.3.3-2.3.3-2.2 0-3.3-1.2-3.3-3.5 0-1.5.4-2.8 1.2-3.7.8-.9 1.9-1.4 3.3-1.4 1.6.1 2.4.7 2.4 2zm-1.1.2c0-.8-.5-1.2-1.6-1.2-.6 0-1.2.2-1.8.6-.6.4-.9 1.1-1.1 2l1.9.1c1.7 0 2.6-.5 2.6-1.5zm5.9 5.7c0 .5-.6.7-1.7.7a2 2 0 0 1-.9-.2c-.2-.2-.3-.4-.3-.8l.1-1.3.7-5h-1.3l-.1-.3c0-.3.1-.4.4-.5l1.4-.2.8.2c.1.1.2.3.1.6l-.4 3.2-.4 2.8.1.4.5.1.8-.1c.2 0 .2.1.2.4zm.1-10.5c0 .3-.1.5-.3.6-.2.2-.4.2-.7.2-.5 0-.8-.2-.8-.7 0-.3.1-.5.3-.6.2-.2.4-.2.8-.2s.7.2.7.7zm9.7 10c.1.1.2.2.2.5 0 .5-.6.7-1.7.7a2 2 0 0 1-.9-.2c-.2-.2-.3-.4-.3-.8l.1-1.3.6-4c.1-.7-.3-1.1-1.3-1.1a3 3 0 0 0-1.5.5c-.5.3-1 .8-1.3 1.5l-.2 1.1-.5 4.2-.6.1-.5-.1-.1-.5.1-1 .1-.7.6-5h-1.3l-.1-.4c0-.2.1-.4.4-.5l1.4-.2.8.2c.1.1.2.3.1.6l-.3 1.3c.2-.6.6-1.1 1.3-1.6s1.3-.6 2.1-.6c.7 0 1.3.2 1.6.6.3.4.5.9.3 1.6l-.5 3.2-.1.9v.5l.1.4.5.1h.9zm20.3-9.3-.3.8-4.5 9.5-.6.1c-.3 0-.5-.1-.5-.3l-1.8-6.8-3.1 7.1-.6.1c-.3 0-.5-.1-.5-.3l-2.5-9.5h-.9l-.1-.3c0-.2.1-.4.3-.5l1.2-.2.5.1.2.3 2.1 8.6 2.9-7-.4-1.7c.2-.3.4-.4.8-.4.3 0 .5.1.6.4l2.1 8.6 4.1-9h.4c.4-.1.6.1.6.4zm7.7 3.9c0 1.7-1.2 2.5-3.6 2.5l-2.1-.1v.5c0 1.8.7 2.7 2.2 2.7a6 6 0 0 0 2.7-.6c.2.1.3.3.3.5 0 .3-.3.6-.8.8-.5.2-1.3.3-2.3.3-2.2 0-3.3-1.2-3.3-3.5 0-1.5.4-2.8 1.2-3.7.8-.9 1.9-1.4 3.3-1.4 1.6.1 2.4.7 2.4 2zm-1.1.2c0-.8-.5-1.2-1.6-1.2-.6 0-1.2.2-1.8.6-.6.4-.9 1.1-1.1 2l1.9.1c1.7 0 2.6-.5 2.6-1.5zm8.6-1.4c0 .2-.1.4-.3.5l-1.2-.1c-.3 0-.7.2-1.1.7-.5.5-.9 1.2-1.4 2.1l-.1.9-.2 1.1-.1 1-.1 1.3-.6.1c-.3 0-.4-.1-.5-.2l-.1-.5.2-1.7.7-5h-1.3l-.1-.3c0-.3.1-.4.4-.5l1.4-.2.8.2c.1.1.2.3.1.6l-.4 2.3c.5-1.3 1-2.1 1.4-2.5.4-.4.9-.6 1.6-.6.6.1.9.4.9.8zm3.6-4.4-1.6 12-.5.1-.5-.1-.1-.5.2-1.9 1.2-8.6.3-1c.1-.2.3-.2.6-.2l.4.2zm4.5 11.5c0 .2-.1.3-.4.5l-1.1.2-.7-.1-.6-.7-2-3-.3-.8 1.8-2.6c.4-.5.8-.8 1.1-.9l1.2-.2c.7 0 1 .2 1 .6l-.3.6-1.2-.1c-.3 0-.6.1-.9.4l-1.5 2 2.2 3.4c.2.3.4.4.7.4l.9-.1.1.4zm4.2.6c0 .6-.2 1.1-.5 1.5-.2.3-.5.5-.9.7l-1 .3c-.3 0-.5-.1-.5-.4v-.2l1.3-.9c.2-.3.4-.5.4-.8 0-.3-.1-.5-.3-.6l-1.1-.3-.1-.4c0-.5.3-.7.9-.7.5 0 1 .2 1.3.5.4.4.5.8.5 1.3z"/>
  </g>
  <g class="st2">
    <path class="st0" fill="#fff" d="M14.3 219.4c0 .5-.6.7-1.8.7l-.8-.2c-.2-.2-.2-.4-.2-.8l.1-1a2 2 0 0 1-1 1.5c-.6.3-1.2.5-2 .5-1.7 0-2.6-1-2.6-3.1 0-1.7.4-3 1.2-4 .8-1 1.8-1.4 3-1.4 1.1 0 1.7.3 1.9.9l.5-3.5.3-1c.1-.2.3-.2.6-.2l.6.1-1 7.8a285.6 285.6 0 0 0-.2 3.2l.5.1.8-.1.1.5zm-2.1-6.5c-.5-.2-1-.3-1.7-.3-1 0-1.7.4-2.3 1.1s-.8 1.7-.8 3c0 .9.1 1.6.4 2s.7.6 1.4.6a2 2 0 0 0 1.2-.4l1.1-1 .7-5zm8.9 6.2.1-.7c-.5 1.2-1.5 1.7-3 1.7-1.7 0-2.5-1-2.5-3.1 0-1.7.4-3 1.2-4 .8-1 1.8-1.4 3-1.4 1.1 0 1.8.3 1.9 1l.2-.8.5-.2.6.2-.7 4.9-.2 1.9.1.4.5.1.8-.1.2.5c0 .5-.6.7-1.7.7l-.8-.2-.2-.9zm.7-6.2a3 3 0 0 0-1.7-.4c-1 0-1.7.4-2.3 1.1s-.8 1.7-.8 3c0 .9.1 1.6.4 2s.7.6 1.4.6a2 2 0 0 0 1.2-.4l1.1-1 .7-4.9zm16.5 6c.1.1.2.2.2.5 0 .5-.6.7-1.7.7a2 2 0 0 1-.9-.2c-.2-.2-.3-.4-.3-.8l.1-1.3.6-4c.1-.7-.3-1.1-1.2-1.1-.5 0-.9.2-1.4.5a4 4 0 0 0-1.3 1.5l-.7 5.3-.6.1-.5-.1-.1-.5.2-1.7.5-3.8c.1-.4 0-.7-.2-.9-.2-.2-.5-.3-1-.3a3 3 0 0 0-1.5.5 4 4 0 0 0-1.3 1.5l-.1 1.1-.5 4.2-.6.1-.5-.1-.1-.5.2-1.7.7-5H25l-.1-.4c0-.2.1-.4.4-.5l1.4-.2.8.2c.1.1.2.3.1.6l-.3 1.3c.2-.6.6-1.2 1.2-1.6.6-.4 1.3-.6 2-.6.6 0 1.1.2 1.5.5.3.3.5.7.5 1.2v.5c.2-.6.6-1.2 1.2-1.6.6-.4 1.2-.6 2-.6.7 0 1.3.2 1.6.6.3.4.5.9.3 1.6l-.5 3.2-.2 1.5.1.4.5.1.8-.2zm4.8.5c0 .5-.6.7-1.7.7a2 2 0 0 1-.9-.2c-.2-.2-.3-.4-.3-.8l.1-1.3.7-5h-1.3l-.1-.3c0-.3.1-.4.4-.5l1.4-.2.8.2c.1.1.2.3.1.6l-.4 3.2-.4 2.8.1.4.5.1.8-.1c.2 0 .2.2.2.4zm.1-10.5c0 .3-.1.5-.3.6-.2.2-.4.2-.7.2-.5 0-.8-.2-.8-.7 0-.3.1-.5.3-.6.2-.2.4-.2.8-.2.5 0 .7.3.7.7zm6.9 3.4c0 .3-.1.4-.3.5l-.9.1h-2l-.5 4.4-.1.9.2.8.8.2a4 4 0 0 0 2.1-.7c.2.1.3.2.3.4 0 .3-.1.5-.3.6l-.9.4-1 .2-.8.1c-.7 0-1.1-.1-1.4-.4-.3-.3-.5-.7-.5-1.4l.1-.7.6-4.8h-1.1l-.1-.4c0-.2.1-.4.3-.5l1-.2.2-1.6c.1-.5.3-.8.7-.8l.7.2-.3 2.2h3c.2.2.2.3.2.5zm12-2.9c.5.2.8.5.8.8s-.1.5-.4.7a5 5 0 0 0-2.8-.7c-.8 0-1.4.2-1.9.6-.5.4-.7.8-.7 1.3s.2 1 .5 1.3c.4.3 1.1.7 2.4 1.1.9.3 1.6.7 1.9 1.1a2.8 2.8 0 0 1-.5 3.7c-.7.6-1.7.9-2.9.9-2.5 0-3.8-.5-3.8-1.4 0-.3.2-.5.5-.6.7.7 1.8 1 3.4 1a3 3 0 0 0 1.8-.5c.4-.3.6-.7.6-1.2s-.2-.9-.5-1.2c-.3-.3-.9-.6-1.8-.9-1.2-.4-2-.8-2.4-1.2-.4-.4-.6-1.1-.6-1.9 0-.9.4-1.6 1.2-2.2.8-.6 1.8-.9 3-.9 1-.1 1.7 0 2.2.2zm7.4 2.9c0 .3-.1.4-.3.5l-.9.1h-2l-.5 4.4-.1.9.2.8.8.2a4 4 0 0 0 2.1-.7c.2.1.3.2.3.4 0 .3-.1.5-.3.6l-.9.4-1 .2-.8.1c-.7 0-1.1-.1-1.4-.4-.3-.3-.5-.7-.5-1.4l.1-.7.6-4.8h-1.1l-.1-.4c0-.2.1-.4.3-.5l1-.2.2-1.6c.1-.5.3-.8.7-.8l.7.2-.3 2.2h3c.2.2.2.3.2.5zm9.1 6.6c.1.1.2.2.2.5 0 .5-.6.7-1.8.7-.8 0-1.2-.3-1.2-.9l.1-1c-.3.6-.7 1.1-1.2 1.4s-1.2.5-1.9.5-1.3-.2-1.6-.5c-.3-.3-.4-.9-.3-1.8l.8-5.1h-1.3l-.1-.4c0-.2.1-.4.4-.5l1.4-.2.8.2c.1.1.2.3.1.6l-.8 5.5c-.1.4 0 .7.2.8.2.2.5.2 1 .2a3 3 0 0 0 1.4-.5 3 3 0 0 0 1.2-1.3l.7-4.4.3-1c.1-.2.3-.2.6-.2l.6.2-.8 5.2-.2 1.5.1.4.5.1c.2.2.5.1.8 0zm9.8.5c0 .5-.6.7-1.8.7l-.8-.2c-.2-.2-.2-.4-.2-.8l.1-1a2 2 0 0 1-1 1.5c-.6.3-1.2.5-2 .5-1.7 0-2.6-1-2.6-3.1 0-1.7.4-3 1.2-4 .8-1 1.8-1.4 3-1.4 1.1 0 1.7.3 1.9.9l.5-3.5.3-1c.1-.2.3-.2.6-.2l.6.1-1 7.8a285.6 285.6 0 0 0-.2 3.2l.5.1.8-.1.1.5zm-2.2-6.5c-.5-.2-1-.3-1.7-.3-1 0-1.7.4-2.3 1.1s-.8 1.7-.8 3c0 .9.1 1.6.4 2s.7.6 1.4.6a2 2 0 0 0 1.2-.4l1.1-1 .7-5zm6.8 6.5c0 .5-.6.7-1.7.7a2 2 0 0 1-.9-.2c-.2-.2-.3-.4-.3-.8l.1-1.3.7-5h-1.3l-.1-.3c0-.3.1-.4.4-.5l1.4-.2.8.2c.1.1.2.3.1.6l-.4 3.2-.4 2.8.1.4.5.1.8-.1c.2 0 .2.2.2.4zm.1-10.5c0 .3-.1.5-.3.6-.2.2-.4.2-.7.2-.5 0-.8-.2-.8-.7 0-.3.1-.5.3-.6.2-.2.4-.2.8-.2.5 0 .7.3.7.7zm8.5 4.7c0 1.7-1.2 2.5-3.6 2.5l-2.1-.1v.5c0 1.8.7 2.7 2.2 2.7a6 6 0 0 0 2.7-.6c.2.1.3.3.3.5 0 .3-.3.6-.8.8s-1.3.3-2.3.3c-2.2 0-3.3-1.2-3.3-3.5 0-1.5.4-2.8 1.2-3.7s1.9-1.4 3.3-1.4c1.5 0 2.4.7 2.4 2zm-1.2.2c0-.8-.5-1.2-1.6-1.2-.6 0-1.2.2-1.8.6-.6.4-.9 1.1-1.1 2l1.9.1c1.8 0 2.6-.5 2.6-1.5zm8.7-1.4c0 .2-.1.4-.3.5l-1.2-.1c-.3 0-.7.2-1.1.7-.5.5-.9 1.2-1.4 2.1l-.1.9-.2 1.1-.1 1-.1 1.3-.6.1c-.3 0-.4-.1-.5-.2l-.1-.5.2-1.7.7-5H103l-.1-.3c0-.3.1-.4.4-.5l1.4-.2.8.2c.1.1.2.3.1.6l-.4 2.3c.5-1.3 1-2.1 1.4-2.5a2 2 0 0 1 1.5-.6c.7.1 1 .3 1 .8zm7.7 1.2c0 1.7-1.2 2.5-3.6 2.5l-2.1-.1v.5c0 1.8.7 2.7 2.2 2.7a6 6 0 0 0 2.7-.6c.2.1.3.3.3.5 0 .3-.3.6-.8.8s-1.3.3-2.3.3c-2.2 0-3.3-1.2-3.3-3.5 0-1.5.4-2.8 1.2-3.7s1.9-1.4 3.3-1.4c1.6 0 2.4.7 2.4 2zm-1.1.2c0-.8-.5-1.2-1.6-1.2-.6 0-1.2.2-1.8.6-.6.4-.9 1.1-1.1 2l1.9.1c1.7 0 2.6-.5 2.6-1.5zm10.8 5.1c.1.1.2.2.2.5 0 .5-.6.7-1.7.7a2 2 0 0 1-.9-.2c-.2-.2-.3-.4-.3-.8l.1-1.3.6-4c.1-.7-.3-1.1-1.3-1.1a3 3 0 0 0-1.5.5c-.5.3-1 .8-1.3 1.5l-.2 1.1-.5 4.2-.6.1-.5-.1-.1-.5.1-1 .1-.7.7-5h-1.3l-.1-.4c0-.2.1-.4.4-.5l1.4-.2.8.2c.1.1.2.3.1.6l-.3 1.3c.2-.6.6-1.1 1.3-1.6.6-.4 1.3-.6 2.1-.6.7 0 1.3.2 1.6.6.3.4.5.9.3 1.6l-.5 3.2-.1.9v.5l.1.4.5.1c.2.2.5.1.8 0zm14.2-6.6c0 .2-.1.4-.3.5l-.9.1-1.4-.2c.7.3 1.1.9 1.1 1.8 0 1.1-.4 1.9-1.1 2.5s-1.7.9-3 .9l-1-.1-.7.4-.3.6c0 .2.1.3.3.4l1.1.2 3.1.2c1 .1 1.6.5 1.6 1.4 0 .6-.2 1.1-.5 1.5a3 3 0 0 1-1.2 1l-1.5.5-1.6.1c-2.1 0-3.1-.6-3.1-1.8 0-1.1.5-1.7 1.6-2.1-.6-.2-.9-.5-.9-1 0-.4.2-.8.5-1 .3-.3.7-.4 1.2-.5-1-.3-1.5-1-1.5-2.2 0-1.2.4-2.1 1.2-2.8.8-.7 1.8-1 3-1l1.9.3h2.3l.1.3zm-2.7 9.1c0-.3-.1-.5-.3-.6a3 3 0 0 0-1.3-.2c-1.2 0-2.2-.1-3.1-.3-.6.4-.9.9-.9 1.6 0 .9.8 1.3 2.3 1.3l1-.1c.3-.1.7-.1 1-.3l.9-.6c.2-.2.4-.5.4-.8zm0-6.9c0-.6-.2-1.1-.5-1.5a2 2 0 0 0-1.4-.5c-.8 0-1.5.2-2 .7-.5.5-.8 1.1-.8 2 0 1.2.7 1.8 1.9 1.8 1.9 0 2.8-.8 2.8-2.5zm10.2-.9c0 1.7-1.2 2.5-3.6 2.5l-2.1-.1v.5c0 1.8.7 2.7 2.2 2.7a6 6 0 0 0 2.7-.6c.2.1.3.3.3.5 0 .3-.3.6-.8.8-.5.2-1.3.3-2.3.3-2.2 0-3.3-1.2-3.3-3.5 0-1.5.4-2.8 1.2-3.7.8-.9 1.9-1.4 3.3-1.4 1.6 0 2.4.7 2.4 2zm-1.1.2c0-.8-.5-1.2-1.6-1.2-.6 0-1.2.2-1.8.6-.6.4-.9 1.1-1.1 2l1.9.1c1.7 0 2.6-.5 2.6-1.5zm2.7 5.2.1-1.3 1.2-8.7.3-1c.1-.2.3-.2.6-.2l.6.1-1 7.8-.4 2.8.1.4.5.1.8-.1c.1.1.2.2.2.5 0 .5-.6.7-1.7.7a2 2 0 0 1-.9-.2c-.3-.2-.4-.5-.4-.9zm7.7.4c0 .5-.6.7-1.7.7a2 2 0 0 1-.9-.2c-.2-.2-.3-.4-.3-.8l.1-1.3.7-5h-1.3l-.1-.3c0-.3.1-.4.4-.5l1.4-.2.8.2c.1.1.2.3.1.6l-.4 3.2-.4 2.8.1.4.5.1.8-.1c.2 0 .2.2.2.4zm.1-10.5c0 .3-.1.5-.3.6l-.7.2c-.5 0-.8-.2-.8-.7 0-.3.1-.5.3-.6.2-.2.4-.2.8-.2.5 0 .7.3.7.7zm9.7 10c.1.1.2.2.2.5 0 .5-.6.7-1.7.7a2 2 0 0 1-.9-.2c-.2-.2-.3-.4-.3-.8l.1-1.3.6-4c.1-.7-.3-1.1-1.3-1.1a3 3 0 0 0-1.5.5c-.5.3-1 .8-1.3 1.5l-.2 1.1-.5 4.2-.6.1-.5-.1-.1-.5.1-1 .1-.7.6-5h-1.3l-.1-.4c0-.2.1-.4.4-.5l1.4-.2.8.2c.1.1.2.3.1.6l-.3 1.3c.2-.6.6-1.1 1.3-1.6s1.3-.6 2.1-.6c.7 0 1.3.2 1.6.6.3.4.5.9.3 1.6l-.5 3.2-.1.9v.5l.1.4.5.1c.3.2.6.1.9 0zm10.2-6.6c0 .2-.1.4-.3.5l-.9.1-1.4-.2c.7.3 1.1.9 1.1 1.8 0 1.1-.4 1.9-1.1 2.5-.7.6-1.7.9-3 .9l-1-.1-.7.4-.3.6c0 .2.1.3.3.4l1.1.2 3.1.2c1 .1 1.5.5 1.5 1.4 0 .6-.2 1.1-.5 1.5a3 3 0 0 1-1.2 1l-1.5.5a8 8 0 0 1-1.6.1c-2.1 0-3.1-.6-3.1-1.8 0-1.1.5-1.7 1.6-2.1-.6-.2-.9-.5-.9-1 0-.4.2-.8.5-1 .3-.3.7-.4 1.2-.5-1-.3-1.5-1-1.5-2.2 0-1.2.4-2.1 1.2-2.8.8-.7 1.8-1 3-1l1.9.3h2.3c.2 0 .2.1.2.3zm-2.7 9.1c0-.3-.1-.5-.3-.6a3 3 0 0 0-1.3-.2c-1.2 0-2.2-.1-3.1-.3-.6.4-.9.9-.9 1.6 0 .9.8 1.3 2.3 1.3l1-.1c.3-.1.7-.1 1-.3l.9-.6c.3-.3.4-.5.4-.8zm.1-6.9c0-.6-.2-1.1-.5-1.5a2 2 0 0 0-1.4-.5c-.8 0-1.5.2-2 .7-.5.5-.8 1.1-.8 2 0 1.2.6 1.8 1.9 1.8 1.9 0 2.8-.8 2.8-2.5zm8.6-2.2c0 .3-.1.4-.3.5l-.9.1h-2l-.5 4.4-.1.9.2.8.8.2a4 4 0 0 0 2.1-.7c.2.1.3.2.3.4 0 .3-.1.5-.3.6l-.9.4-1 .2-.8.1c-.7 0-1.1-.1-1.4-.4-.3-.3-.5-.7-.5-1.4l.1-.7.6-4.8h-1.1l-.1-.4c0-.2.1-.4.3-.5l1-.2.2-1.6c.1-.5.3-.8.7-.8l.7.2-.3 2.2h3l.2.5zm3.5 6.8c0 .6-.4 1-1.1 1-.6 0-.9-.3-.9-.8 0-.3.1-.5.3-.7.2-.2.5-.3.8-.3.6 0 .9.3.9.8zm1.1-10.8-.1 1-.9 6.9-.6.1c-.4 0-.6-.2-.6-.5v-.5l.8-6.3.2-.6.5-.2.7.1z"/>
  </g>
</svg>
