<svg width="428pt" height="447pt" preserveAspectRatio="xMidYMid" version="1.0" viewBox="0 0 428 447" xmlns="http://www.w3.org/2000/svg"><g transform="matrix(.1 0 0 -.1 -.15 532)"><path d="m2588 5310c-63-11-152-37-218-62-111-43-292-140-334-178-60-56-104-144-127-253-18-90-26-267-13-315 6-21 11-17 49 40 113 169 250 266 505 361 154 57 177 53 30-5-172-68-249-111-332-188-132-120-218-250-218-327 0-55 12-60 104-44 155 26 225 62 431 222 50 38 120 85 156 104 67 35 67 35 195 34 71-1 156-5 189-9 51-6 41-7-66-9-231-2-294-27-508-196-71-57-157-122-190-145-74-50-201-110-235-110-14 0-26-4-26-8 0-14 79-192 122-275 31-58 47-79 66-84 28-7 126 5 302 38 101 18 136 20 290 14 286-11 337-22 110-24-107 0-251-8-320-16-111-13-275-48-337-72-21-8-17-18 121-333l142-325h245c223 0 252-2 337-23 51-13 91-26 89-28-2-3-48 1-102 7-175 21-480-2-517-39-8-8 397-843 414-853 6-4 29-10 52-13 79-12 231-65 291-101 70-42 149-102 208-157l42-40-65 46c-100 71-211 137-255 153-22 8-82 17-134 20-79 5-93 4-89-8 16-40 313-718 325-744 9-16 11-25 5-20-5 6-146 258-312 560-167 303-311 563-320 579l-18 29-57-89c-182-282-277-457-293-541-32-165-32-164-27-56 2 56 11 129 20 163 30 116 129 316 261 526 35 56 64 108 64 114 0 14-380 740-387 740s-164-167-243-260c-85-98-217-275-280-375-25-38-113-205-197-370s-152-297-153-294c-1 25 184 478 238 583 117 225 294 480 493 710l98 114-81 168c-44 93-97 206-119 252l-38 83-49-25c-78-39-246-156-373-258-324-259-571-512-708-723-53-81-25-19 41 91 181 304 337 465 763 784 224 168 265 206 265 247 0 26-76 199-101 229-7 9-42-2-127-38-64-27-234-97-376-154-143-58-282-117-310-131-108-55-408-251-513-335-7-6-13-8-13-5 0 9 225 193 345 282 202 150 358 231 743 386 114 46 177 76 169 81-30 16-188 57-286 73-125 21-262 16-390-15-46-11-86-18-88-16-7 7 205 73 278 87 84 16 251 5 374-25 113-28 112-25-33 61-186 110-362 183-488 203-80 13-228-2-289-29-57-25-145-108-245-231-110-136-393-517-430-579-77-132-118-280-127-461-15-323 83-683 303-1120 81-161 251-450 265-450 4 0 10 12 13 28 20 82 93 289 131 367 47 98 98 165 263 350 59 66 157 180 217 254 177 217 296 311 390 311 55 0 79-19 79-62 0-96-130-271-466-626-242-254-361-478-389-727-30-272 108-470 461-663 69-37 291-132 310-132 5 0-5 39-21 87-40 117-63 253-54 326 11 101 69 246 245 612 99 205 258 407 344 435 37 12 41 11 58-10 10-12 18-28 18-35 0-42-49-187-123-360-97-229-112-272-131-375-33-179-28-355 15-512 27-99 59-150 116-186 112-71 269-89 607-68 272 17 320 14 591-41 215-43 305-48 335-18 11 12 53 113 93 225 76 214 106 276 250 526 101 175 157 306 164 384 4 44 0 68-21 119-14 36-34 73-43 84-25 27-141 84-323 157-188 75-277 121-332 169-43 38-53 76-28 106 20 24 113 18 272-16 167-36 249-71 418-183 89-58 116-72 123-61 28 51 103 334 122 465 18 115 11 161-31 221-80 115-363 268-694 375-331 106-383 129-415 178-54 83 111 129 380 106 187-16 358-61 660-174l67-26-7 48c-17 122-69 351-96 430-75 217-219 464-397 681-115 141-336 361-442 439-94 71-253 152-345 177-69 19-295 28-367 15z"/></g></svg>
