<svg width="733.6" height="183.1" viewBox="0 0 194.1 48.4" xmlns="http://www.w3.org/2000/svg">
  <defs>
    <clipPath clipPathUnits="userSpaceOnUse" id="a">
      <path d="M0 0h3344v2382H0Z"/>
    </clipPath>
  </defs>
  <g clip-path="url(#a)" transform="translate(-268.8 -148.5) scale(.2646)">
    <path d="m1735.3 575.4-719.2 37.7v27.4l9.2 3-.5.5 16.4 4.6-25.1 18.7v43.9h4.2l23.3-.2-27.5 18.5v15l733.6-38.5-.4-11.1-.6-10.9-35.4-18.1 17.3-5.6-.1-.1 16.7-5.6-1.6-30.4-1-17.1-43.3-9 38.7-13 3.1-1.1-.5-8.8zm0 0L1016.1 613v27.4l9.1 3.1-.5.4 16.5 4.7-25.1 18.6v44l4.2-.1-.1.1 23.4-.3-27.5 18.5v15l733.6-38.5-.5-11.1-.5-10.9-35.4-18 17.2-5.7 16.6-5.7-1.6-30.3-1-17.1-43.2-9 38.7-13 3-1.1-.4-8.9z" style="fill:#a2672a"/>
    <path d="M1016.1 599.5v27.4l24.3 6.9-24.3 18.1v44.5l26.7-.3-23.9 16.1-2.8 2.1v15.5l733-38.4-1.2-22.2-17.4-9-18-9.1 33.9-11.1-.8-15.7-1.9-32-2.7-.6-40.5-8.4 22.2-7.5h-.9l20.6-7.2-.2-7.1zm0 0v27.3l24.3 7-24.3 18v44.6l26.7-.3-23.9 16.1-2.8 2v15.6l733-38.4-1.2-22.2-17.4-9-18-9.2 33.9-11-.9-15.8-1.8-31.9-2.7-.6-40.5-8.5 22.2-7.4h-.9l20.6-7.2-.2-7.2z" style="fill:#deba6d"/>
    <path d="M1735.2 571.1a61765 61765 0 0 0-385.5 18.6c-75.7 3.8-151.7 9.4-227.5 12.7a1631 1631 0 0 1-106.1 1v5.5c29.7.5 59.5.4 89-.4 38.6-1 77.5-4.2 116-6.4 40.5-2.3 81-4.4 121.5-6.5 124.6-6.4 249.3-12 374-17.8l6.1-2h-.9Zm-248.4 3.7-217.5 11.4c59.5-1.5 119.3-3.5 178.3-8.4l39.2-3zm218.4 9.4c-125.1 4-250.4 8.8-375.4 15.3-84.8 4.3-168.5 11.6-253 17.4l-60.7 4v5.4l54-3.5c85.1-5.8 169.4-13.1 254.8-17.5 134.5-7 269.5-11.7 404.1-16.1zm29.4 6.2a29885 29885 0 0 0-152 10.4c-85 6.2-169.2 13.9-254.5 18.7-96.7 5.5-193.5 9.7-290.3 13.6l2.6.7-7.2 5.3c96.8-4 193.6-8.3 290.1-13.7 84.7-4.8 168.4-12.4 252.8-18.6 55.9-4.1 111.8-7.8 167.8-11.5l-.2-3-2.7-.6zm-123.3 23.8c-21.1 0-42.3.3-63.3 1-38.6 1.3-77.5 4.7-116 7-40.5 2.5-80.9 4.8-121.5 7.1-94.7 5.3-189.4 10.1-284.2 15l-8.5 6.3c95.2-5 190.5-10 285.8-15.3 75.7-4.3 151.6-10.1 227.4-13.8 71.2-3.5 145.4-1.7 214.6 3.2v-.4l-.3-5.7a2040 2040 0 0 0-134-4.4zm89 19.6c-96 .1-192.3 1-288.9 3.7-68.5 2-137.5 4.1-205.5 10.1-62.8 5.6-126.3 9.8-189.8 14v5.4c62-4.1 123.8-8.3 185.4-13.5 67.3-5.6 134.2-8.2 202.1-10.2a10599 10599 0 0 1 342.8-3.5l-.3-6h-45.8zM1370 651c-28.5.3-57.5 2.2-85.9 3.9-89.5 5.6-179 12.9-267.9 20.7v5.8c83.4-7.3 167-14.2 250.7-19.8 28.8-1.9 57.7-3.7 86.7-4.7 40.9-1.4 81.5 1.4 120.8 3.5 60.8 3.2 121.1 6.9 182.1 9.8 30 1.4 60.8 2.8 91.7 3.2l-.2-4.2-3.3-1.7c-18-.3-36-.9-53.7-1.6-62.1-2.4-123.2-6.2-184.6-9.6-44.4-2.5-90.3-5.9-136.4-5.3zm9.9 13.2c-11.3 0-24 .7-30.3 1-78.8 2.6-158.1 8.5-236.5 13.8-32.3 2.2-64.6 4.7-96.9 7v5.4a12237 12237 0 0 1 295.2-19.1 3089.8 3089.8 0 0 1 59.5-2.2h5.5c-6.7 1.3-15.5 2.7-19.5 3.4-66.7 11.4-136.7 20.3-205.6 29.3-44.9 6-90 11.6-135.1 17.1v5c66.7-8.2 133.3-16.7 199.6-25.5 44.3-5.8 88.6-11.8 132-18.6 15.3-2.4 31.7-4.8 45.5-8.3 3.7-.9 9.3-2.6 8.8-4.3-.9-3.1-10.9-4-22.2-4zm163.9 10.3a690 690 0 0 0-71.8 2.5c-38.5 3.6-75.9 9.1-113.4 14.3a14610.9 14610.9 0 0 1-254.5 32.4c-7.8 1-16.5 1.8-25 2.8l89.4-4.7 6.1-.8c87.1-11.1 173.5-23.2 260.6-34.3a692 692 0 0 1 105-6.7c31.4.7 62.4 2.6 93.9 3.4 37.3 1 76.1 2.2 114.8 2.1l-.3-6c-28.9-.2-57.7-.6-86.4-1.1-39-.8-78.6-3.5-118.4-4zM1081.2 692a1061 1061 0 0 0-65.1 3.5v.8l26.7-.3-6.3 4.2 25.9-1.7 17.9-.9h1.3c-16 3.7-36.5 6.2-54 8.6l-8.7 5.9-2.2 1.5 17.3-2.5c12.3-1.8 74.2-9 74-15.7-.1-2.7-10.6-3.6-26.8-3.4zm610.9 2.3c-61.6 1-123.3 2-184.8 2.5-46.6.4-97.7 7.9-142.8 12.9l-26.6 3.1 97.3-5 8.6-1c20.2-2 41-4.3 61.6-4.4 13.4 0 27-.3 40.4-.5z" style="fill:#cb9e37"/>
  </g>
</svg>
