<?xml version="1.0" encoding="UTF-8"?>
<svg width="180" height="64" version="1.1" viewBox="0 0 105 17" xmlns="http://www.w3.org/2000/svg"><defs><clipPath id="a"><path d="m0 0h3344v2382h-3344z"/></clipPath></defs><g transform="matrix(.14 .013 -.018 .26 -129 -182)" clip-path="url(#a)"><path d="m1735 571-719 38v27l9.2 3-0.5 0.5 16 4.6-25 19v44h4.2l23-0.2-28 18v15l734-38-0.4-11-0.6-11-35-18 17-5.6-0.1-0.1 17-5.6-1.6-30-1-17-43-9 42-14-0.5-8.8zm0 0-719 38v27l9.1 3.1-0.5 0.4 16 4.7-25 19v44l4.2-0.1-0.1 0.1 23-0.3-28 18v15l734-38-0.5-11-0.5-11-35-18 34-11-1.6-30-1-17-43-9 42-14-0.4-8.9z" fill="#a2672a"/><path d="m1e3 600v27l24 6.9-24 18v44l27-0.3-24 16-2.8 2.1v16l733-38-1.2-22-35-18 34-11-0.8-16-1.9-32-43-9 22-7.5h-0.9l21-7.2-0.2-7.1zm0 0v27l24 7-24 18v45l27-0.3-27 18v16l733-38-1.2-22-35-18 34-11-0.9-16-1.8-32-43-9.1 22-7.4h-0.9l21-7.2-0.2-7.2z" fill="#deba6d"/><path d="m1735 571a61765 61765 0 0 0-386 19c-76 3.8-152 9.4-228 13a1631 1631 0 0 1-106 1v5.5c30 0.5 60 0.4 89-0.4 39-1 78-4.2 116-6.4 40-2.3 81-4.4 122-6.5 125-6.4 249-12 374-18l6.1-2h-0.9zm-248 3.7-218 11c60-1.5 119-3.5 178-8.4zm218 9.4c-125 4-250 8.8-375 15-85 4.3-168 12-253 17l-61 4v5.4l54-3.5c85-5.8 169-13 255-18 134-7 270-12 404-16zm29 6.2a3e4 3e4 0 0 0-152 10c-85 6.2-169 14-254 19-97 5.5-194 9.7-290 14l2.6 0.7-7.2 5.3c97-4 194-8.3 290-14 85-4.8 168-12 253-19 56-4.1 112-7.8 168-12l-0.2-3-2.7-0.6zm-123 24c-21 0-42 0.3-63 1-39 1.3-78 4.7-116 7-40 2.5-81 4.8-122 7.1-95 5.3-189 10-284 15l-8.5 6.3c95-5 190-10 286-15 76-4.3 152-10 227-14 71-3.5 145-1.7 215 3.2v-0.4l-0.3-5.7a2e3 2e3 0 0 0-134-4.4zm89 20c-96 0.1-192 1-289 3.7-68 2-138 4.1-206 10-63 5.6-126 9.8-190 14v5.4c62-4.1 124-8.3 185-14 67-5.6 134-8.2 202-10a10599 10599 0 0 1 343-3.5l-0.3-6zm-330 17c-28 0.3-58 2.2-86 3.9-90 5.6-179 13-268 21v5.8c83-7.3 167-14 251-20 29-1.9 58-3.7 87-4.7 41-1.4 82 1.4 121 3.5 61 3.2 121 6.9 182 9.8 30 1.4 61 2.8 92 3.2l-0.2-4.2-3.3-1.7c-18-0.3-36-0.9-54-1.6-62-2.4-123-6.2-185-9.6-44-2.5-90-5.9-136-5.3zm9.9 13c-11 0-24 0.7-30 1-79 2.6-158 8.5-236 14-32 2.2-65 4.7-97 7v5.4a12237 12237 0 0 1 295-19 3090 3090 0 0 1 60-2.2h5.5c-6.7 1.3-16 2.7-20 3.4-67 11-137 20-206 29-45 6-90 12-135 17v5c67-8.2 133-17 200-26 44-5.8 89-12 132-19 15-2.4 32-4.8 46-8.3 3.7-0.9 9.3-2.6 8.8-4.3-0.9-3.1-11-4-22-4zm164 10a690 690 0 0 0-72 2.5c-38 3.6-76 9.1-113 14a14611 14611 0 0 1-254 32c-7.8 1-16 1.8-25 2.8l89-4.7 6.1-0.8c87-11 174-23 261-34a692 692 0 0 1 105-6.7c31 0.7 62 2.6 94 3.4 37 1 76 2.2 115 2.1l-0.3-6c-29-0.2-58-0.6-86-1.1-39-0.8-79-3.5-118-4zm-463 18a1061 1061 0 0 0-65 3.5v0.8l27-0.3-6.3 4.2 26-1.7 18-0.9h1.3c-16 3.7-36 6.2-54 8.6l-11 7.4 17-2.5c12-1.8 74-9 74-16-0.1-2.7-11-3.6-27-3.4zm611 2.3c-62 1-123 2-185 2.5-47 0.4-98 7.9-143 13l-27 3.1 97-5 8.6-1c20-2 41-4.3 62-4.4 13 0 27-0.3 40-0.5z" fill="#cb9e37"/></g></svg>
